<svg width="359" height="148.969" viewBox="0 0 359 148.969">
  <defs>
    <filter id="Trazado_32" x="0" y="0" width="359" height="148.969" filterUnits="userSpaceOnUse">
      <feOffset dy="3" input="SourceAlpha"/>
      <feGaussianBlur stdDeviation="3" result="blur"/>
      <feFlood flood-opacity="0.161"/>
      <feComposite operator="in" in2="blur"/>
      <feComposite in="SourceGraphic"/>
    </filter>
  </defs>
  <g id="Grupo_8" data-name="Grupo 8" transform="translate(-397 -2021)">
    <g transform="matrix(1, 0, 0, 1, 397, 2021)" filter="url(#Trazado_32)">
      <g id="Trazado_32-2" data-name="Trazado 32" transform="translate(9 6)" fill="#0083b0">
        <path d="M 337.7681274414062 128.4687194824219 L 3.255816459655762 128.4687194824219 L 36.91962051391602 2.499996185302734 L 305.066162109375 2.499996185302734 L 337.7681274414062 128.4687194824219 Z" stroke="none"/>
        <path d="M 38.83929443359375 5.000007629394531 L 6.511688232421875 125.9687118530273 L 334.5362243652344 125.9687118530273 L 303.1322631835938 5.000007629394531 L 38.83929443359375 5.000007629394531 M 35 1.52587890625e-05 L 307 1.52587890625e-05 L 341 130.9687042236328 L 0 130.9687042236328 L 35 1.52587890625e-05 Z" stroke="none" fill="#fff"/>
      </g>
    </g>
    <line id="Línea_13" data-name="Línea 13" y1="123.969" x2="30" transform="translate(470.5 2030.5)" fill="none" stroke="#fff" stroke-width="5"/>
    <line id="Línea_14" data-name="Línea 14" x1="30" y1="123.969" transform="translate(656.5 2030.5)" fill="none" stroke="#fff" stroke-width="5"/>
    <line id="Línea_15" data-name="Línea 15" x2="180" transform="translate(488.5 2079.853)" fill="none" stroke="#fff" stroke-width="5"/>
    <path id="Trazado_33" data-name="Trazado 33" d="M0,0,2,123.969" transform="translate(576.5 2030.5)" fill="none" stroke="#fff" stroke-width="3"/>
  </g>
</svg>
